<mxfile host="app.diagrams.net" modified="2021-12-12T17:06:36.282Z" agent="5.0 (Windows NT 10.0; Win64; x64) AppleWebKit/537.36 (KHTML, like Gecko) Chrome/96.0.4664.93 Safari/537.36" etag="ksdYHqVosP22MZ9RwAoM" version="15.8.3" type="github">
  <diagram id="1gdNLYsa5M4heKJv8bDP" name="Page-1">
    <mxGraphModel dx="1038" dy="539" grid="1" gridSize="10" guides="1" tooltips="1" connect="1" arrows="1" fold="1" page="1" pageScale="1" pageWidth="827" pageHeight="1169" math="0" shadow="0">
      <root>
        <mxCell id="0" />
        <mxCell id="1" parent="0" />
        <mxCell id="_PyuYVtM4wjyLYNRoyR9-45" value="" style="rounded=0;whiteSpace=wrap;html=1;fillColor=none;strokeColor=#00B336;strokeWidth=2;" vertex="1" parent="1">
          <mxGeometry x="250" y="386" width="303.8" height="140" as="geometry" />
        </mxCell>
        <mxCell id="_PyuYVtM4wjyLYNRoyR9-8" value="" style="edgeStyle=orthogonalEdgeStyle;rounded=0;orthogonalLoop=1;jettySize=auto;html=1;" edge="1" parent="1" source="_PyuYVtM4wjyLYNRoyR9-1" target="_PyuYVtM4wjyLYNRoyR9-7">
          <mxGeometry relative="1" as="geometry" />
        </mxCell>
        <mxCell id="_PyuYVtM4wjyLYNRoyR9-1" value="文本句法分析" style="aspect=fixed;perimeter=ellipsePerimeter;html=1;align=center;shadow=0;dashed=0;fontColor=rgba(0, 0, 0, 1);labelBackgroundColor=#ffffff;fontSize=12;spacingTop=3;image;image=img/lib/ibm/devops/release_management.svg;fontFamily=Helvetica;strokeColor=rgba(0, 0, 0, 1);fillColor=rgba(255, 255, 255, 1);" vertex="1" parent="1">
          <mxGeometry x="480" y="35" width="120" height="60" as="geometry" />
        </mxCell>
        <mxCell id="_PyuYVtM4wjyLYNRoyR9-6" value="" style="edgeStyle=orthogonalEdgeStyle;rounded=0;orthogonalLoop=1;jettySize=auto;html=1;" edge="1" parent="1" source="_PyuYVtM4wjyLYNRoyR9-5" target="_PyuYVtM4wjyLYNRoyR9-1">
          <mxGeometry relative="1" as="geometry" />
        </mxCell>
        <mxCell id="_PyuYVtM4wjyLYNRoyR9-11" value="" style="edgeStyle=orthogonalEdgeStyle;rounded=0;orthogonalLoop=1;jettySize=auto;html=1;" edge="1" parent="1" source="_PyuYVtM4wjyLYNRoyR9-5" target="_PyuYVtM4wjyLYNRoyR9-10">
          <mxGeometry relative="1" as="geometry" />
        </mxCell>
        <mxCell id="_PyuYVtM4wjyLYNRoyR9-5" value="专利数据库" style="aspect=fixed;perimeter=ellipsePerimeter;html=1;align=center;shadow=0;dashed=0;fontColor=rgba(0, 0, 0, 1);labelBackgroundColor=#ffffff;fontSize=12;spacingTop=3;image;image=img/lib/ibm/analytics/data_integration.svg;fontFamily=Helvetica;strokeColor=rgba(0, 0, 0, 1);strokeWidth=2;fillColor=rgba(255, 255, 255, 1);" vertex="1" parent="1">
          <mxGeometry x="352.05" y="30" width="87.5" height="70" as="geometry" />
        </mxCell>
        <mxCell id="_PyuYVtM4wjyLYNRoyR9-26" value="" style="edgeStyle=orthogonalEdgeStyle;rounded=0;orthogonalLoop=1;jettySize=auto;html=1;" edge="1" parent="1" source="_PyuYVtM4wjyLYNRoyR9-7" target="_PyuYVtM4wjyLYNRoyR9-25">
          <mxGeometry relative="1" as="geometry" />
        </mxCell>
        <mxCell id="_PyuYVtM4wjyLYNRoyR9-7" value="关键词提取" style="aspect=fixed;perimeter=ellipsePerimeter;html=1;align=center;shadow=0;dashed=0;fontColor=rgba(0, 0, 0, 1);labelBackgroundColor=#ffffff;fontSize=12;spacingTop=3;image;image=img/lib/ibm/vpc/ImageService.svg;fontFamily=Helvetica;strokeColor=rgba(0, 0, 0, 1);fillColor=rgba(255, 255, 255, 1);" vertex="1" parent="1">
          <mxGeometry x="480" y="160" width="120" height="60" as="geometry" />
        </mxCell>
        <mxCell id="_PyuYVtM4wjyLYNRoyR9-10" value="专利文本表示" style="aspect=fixed;perimeter=ellipsePerimeter;html=1;align=center;shadow=0;dashed=0;fontColor=rgba(0, 0, 0, 1);labelBackgroundColor=#ffffff;fontSize=12;spacingTop=3;image;image=img/lib/ibm/applications/annotate.svg;fontFamily=Helvetica;strokeColor=rgba(0, 0, 0, 1);strokeWidth=2;fillColor=rgba(255, 255, 255, 1);" vertex="1" parent="1">
          <mxGeometry x="190" y="35" width="120" height="60" as="geometry" />
        </mxCell>
        <mxCell id="_PyuYVtM4wjyLYNRoyR9-29" style="edgeStyle=orthogonalEdgeStyle;rounded=0;orthogonalLoop=1;jettySize=auto;html=1;" edge="1" parent="1" source="_PyuYVtM4wjyLYNRoyR9-25" target="_PyuYVtM4wjyLYNRoyR9-28">
          <mxGeometry relative="1" as="geometry" />
        </mxCell>
        <mxCell id="_PyuYVtM4wjyLYNRoyR9-25" value="技术基因表示" style="sketch=0;aspect=fixed;html=1;points=[];align=center;image;fontSize=12;image=img/lib/mscae/Genomics_Accounts.svg;" vertex="1" parent="1">
          <mxGeometry x="375.00000000000006" y="150" width="41.6" height="80" as="geometry" />
        </mxCell>
        <mxCell id="_PyuYVtM4wjyLYNRoyR9-42" value="" style="edgeStyle=orthogonalEdgeStyle;rounded=0;orthogonalLoop=1;jettySize=auto;html=1;" edge="1" parent="1" source="_PyuYVtM4wjyLYNRoyR9-28" target="_PyuYVtM4wjyLYNRoyR9-41">
          <mxGeometry relative="1" as="geometry" />
        </mxCell>
        <mxCell id="_PyuYVtM4wjyLYNRoyR9-28" value="进化算法" style="sketch=0;aspect=fixed;html=1;points=[];align=center;image;fontSize=12;image=img/lib/mscae/Machine_Learning_Studio_Web_Service_Plans.svg;" vertex="1" parent="1">
          <mxGeometry x="371" y="299" width="50" height="50" as="geometry" />
        </mxCell>
        <mxCell id="_PyuYVtM4wjyLYNRoyR9-34" value="评价" style="edgeStyle=orthogonalEdgeStyle;rounded=0;orthogonalLoop=1;jettySize=auto;html=1;" edge="1" parent="1" source="_PyuYVtM4wjyLYNRoyR9-33" target="_PyuYVtM4wjyLYNRoyR9-28">
          <mxGeometry relative="1" as="geometry" />
        </mxCell>
        <mxCell id="_PyuYVtM4wjyLYNRoyR9-33" value="价值度" style="shape=image;html=1;verticalAlign=top;verticalLabelPosition=bottom;labelBackgroundColor=#ffffff;imageAspect=0;aspect=fixed;image=https://cdn0.iconfinder.com/data/icons/kameleon-free-pack-rounded/110/Money-Increase-128.png" vertex="1" parent="1">
          <mxGeometry x="511" y="295.5" width="58" height="58" as="geometry" />
        </mxCell>
        <mxCell id="_PyuYVtM4wjyLYNRoyR9-36" value="评价" style="edgeStyle=orthogonalEdgeStyle;rounded=0;orthogonalLoop=1;jettySize=auto;html=1;" edge="1" parent="1" source="_PyuYVtM4wjyLYNRoyR9-35" target="_PyuYVtM4wjyLYNRoyR9-28">
          <mxGeometry relative="1" as="geometry" />
        </mxCell>
        <mxCell id="_PyuYVtM4wjyLYNRoyR9-35" value="新颖性&lt;br&gt;" style="shape=image;html=1;verticalAlign=top;verticalLabelPosition=bottom;labelBackgroundColor=#ffffff;imageAspect=0;aspect=fixed;image=https://cdn2.iconfinder.com/data/icons/bitsies/128/Lightbulb-128.png" vertex="1" parent="1">
          <mxGeometry x="230" y="294.5" width="59" height="59" as="geometry" />
        </mxCell>
        <mxCell id="_PyuYVtM4wjyLYNRoyR9-41" value="&amp;nbsp;技术机会发现" style="aspect=fixed;html=1;points=[];align=center;image;fontSize=12;image=img/lib/azure2/general/Search_Grid.svg;" vertex="1" parent="1">
          <mxGeometry x="362" y="399" width="68" height="67" as="geometry" />
        </mxCell>
        <mxCell id="_PyuYVtM4wjyLYNRoyR9-43" value="企业" style="verticalLabelPosition=bottom;html=1;verticalAlign=top;align=center;strokeColor=none;fillColor=#00BEF2;shape=mxgraph.azure.enterprise;pointerEvents=1;" vertex="1" parent="1">
          <mxGeometry x="472" y="429" width="50" height="54" as="geometry" />
        </mxCell>
        <mxCell id="_PyuYVtM4wjyLYNRoyR9-44" value="高校" style="shape=image;html=1;verticalAlign=top;verticalLabelPosition=bottom;labelBackgroundColor=#ffffff;imageAspect=0;aspect=fixed;image=https://cdn4.iconfinder.com/data/icons/essential-app-1/16/education-degree-course-university-college-128.png" vertex="1" parent="1">
          <mxGeometry x="282" y="429" width="58" height="58" as="geometry" />
        </mxCell>
        <mxCell id="_PyuYVtM4wjyLYNRoyR9-50" style="edgeStyle=orthogonalEdgeStyle;rounded=0;orthogonalLoop=1;jettySize=auto;html=1;" edge="1" parent="1" source="_PyuYVtM4wjyLYNRoyR9-31" target="_PyuYVtM4wjyLYNRoyR9-28">
          <mxGeometry relative="1" as="geometry">
            <Array as="points">
              <mxPoint x="250" y="280" />
              <mxPoint x="396" y="280" />
            </Array>
          </mxGeometry>
        </mxCell>
        <mxCell id="_PyuYVtM4wjyLYNRoyR9-31" value="技术发展过程" style="sketch=0;aspect=fixed;html=1;points=[];align=center;image;fontSize=12;image=img/lib/mscae/Event_Grid_Topics.svg;" vertex="1" parent="1">
          <mxGeometry x="220" y="150" width="60" height="60" as="geometry" />
        </mxCell>
        <mxCell id="_PyuYVtM4wjyLYNRoyR9-46" value="" style="edgeStyle=orthogonalEdgeStyle;rounded=0;orthogonalLoop=1;jettySize=auto;html=1;endArrow=none;" edge="1" parent="1" source="_PyuYVtM4wjyLYNRoyR9-10" target="_PyuYVtM4wjyLYNRoyR9-31">
          <mxGeometry relative="1" as="geometry">
            <mxPoint x="250" y="90" as="sourcePoint" />
            <mxPoint x="250" y="280" as="targetPoint" />
          </mxGeometry>
        </mxCell>
      </root>
    </mxGraphModel>
  </diagram>
</mxfile>
